<?xml version="1.0" encoding="utf-8"?>
<!-- Generator: Adobe Illustrator 16.0.0, SVG Export Plug-In . SVG Version: 6.00 Build 0)  -->
<!DOCTYPE svg PUBLIC "-//W3C//DTD SVG 1.0//EN" "http://www.w3.org/TR/2001/REC-SVG-20010904/DTD/svg10.dtd">
<svg version="1.0" xmlns="http://www.w3.org/2000/svg" xmlns:xlink="http://www.w3.org/1999/xlink" x="0px" y="0px" width="400px"
	 height="400px" viewBox="0 0 400 400" enable-background="new 0 0 400 400" xml:space="preserve">
<g id="Layer_1">
	<circle fill="none" stroke="#ED1E79" stroke-width="2" stroke-miterlimit="10" cx="50" cy="50" r="43.4"/>
	<circle fill="none" stroke="#ED1E79" stroke-width="2" stroke-miterlimit="10" cx="150" cy="50" r="43.4"/>
	<circle fill="none" stroke="#ED1E79" stroke-width="2" stroke-miterlimit="10" cx="250" cy="50" r="43.4"/>
	<circle fill="none" stroke="#ED1E79" stroke-width="2" stroke-miterlimit="10" cx="350" cy="50" r="43.4"/>
	<circle fill="none" stroke="#ED1E79" stroke-width="2" stroke-miterlimit="10" cx="50" cy="150" r="43.4"/>
	<circle fill="none" stroke="#ED1E79" stroke-width="2" stroke-miterlimit="10" cx="150" cy="150" r="43.4"/>
	<circle fill="none" stroke="#ED1E79" stroke-width="2" stroke-miterlimit="10" cx="250" cy="150" r="43.4"/>
	<circle fill="none" stroke="#ED1E79" stroke-width="2" stroke-miterlimit="10" cx="350" cy="150" r="43.4"/>
	<circle fill="none" stroke="#ED1E79" stroke-width="2" stroke-miterlimit="10" cx="50" cy="250" r="43.4"/>
	<circle fill="none" stroke="#ED1E79" stroke-width="2" stroke-miterlimit="10" cx="150" cy="250" r="43.4"/>
	<circle fill="none" stroke="#ED1E79" stroke-width="2" stroke-miterlimit="10" cx="250" cy="250" r="43.4"/>
	<circle fill="none" stroke="#ED1E79" stroke-width="2" stroke-miterlimit="10" cx="350" cy="250" r="43.4"/>
	<circle fill="none" stroke="#ED1E79" stroke-width="2" stroke-miterlimit="10" cx="50" cy="350" r="43.4"/>
	<circle fill="none" stroke="#ED1E79" stroke-width="2" stroke-miterlimit="10" cx="150" cy="350" r="43.4"/>
	<circle fill="none" stroke="#ED1E79" stroke-width="2" stroke-miterlimit="10" cx="250" cy="350" r="43.4"/>
</g>
<g id="Layer_2" font-family="'Open Sans', sans-serif" font-size="57.6309">
	<text transform="matrix(1 0 0 1 34.2178 69.915)" fill="#4D4D4D">1</text>
	<text transform="matrix(1 0 0 1 134.2178 69.915)" fill="#4D4D4D">2</text>
	<text transform="matrix(1 0 0 1 234.2178 69.915)" fill="#4D4D4D">3</text>
	<text transform="matrix(1 0 0 1 334.2178 69.915)" fill="#4D4D4D">4</text>
	<text transform="matrix(1 0 0 1 34.2178 169.915)" fill="#4D4D4D">5</text>
	<text transform="matrix(1 0 0 1 134.2178 169.915)" fill="#4D4D4D">6</text>
	<text transform="matrix(1 0 0 1 234.2178 169.915)" fill="#4D4D4D">7</text>
	<text transform="matrix(1 0 0 1 334.2178 169.915)" fill="#4D4D4D">8</text>
	<text transform="matrix(1 0 0 1 34.2178 269.915)" fill="#4D4D4D">9</text>
	<text transform="matrix(1 0 0 1 117.2178 269.915)" fill="#4D4D4D">10</text>
	<text transform="matrix(1 0 0 1 219.2178 269.915)" fill="#4D4D4D">11</text>
	<text transform="matrix(1 0 0 1 318.2178 269.915)" fill="#4D4D4D">12</text>
	<text transform="matrix(1 0 0 1 18.2178 369.915)" fill="#4D4D4D">13</text>
	<text transform="matrix(1 0 0 1 118.2178 369.915)" fill="#4D4D4D">14</text>
	<text transform="matrix(1 0 0 1 219.2178 369.915)" fill="#4D4D4D">15</text>
</g>
</svg>
